<mxfile host="app.diagrams.net" modified="2023-08-21T17:05:03.733Z" agent="Mozilla/5.0 (X11; Linux x86_64) AppleWebKit/537.36 (KHTML, like Gecko) Chrome/115.0.0.0 Safari/537.36" version="21.6.8" etag="tQt7XY1Sz-PaDtGnvPcp" type="github">
  <diagram name="PÃ¡gina-1" id="qR_ZapUzshWGu8Sh66fh">
    <mxGraphModel>
      <root>
        <mxCell id="0" />
        <mxCell id="1" parent="0" />
      </root>
    </mxGraphModel>
  </diagram>
</mxfile>
